<?xml version="1.0" standalone="no"?><!DOCTYPE svg PUBLIC "-//W3C//DTD SVG 1.1//EN" "http://www.w3.org/Graphics/SVG/1.1/DTD/svg11.dtd"><svg t="1648915738284" class="icon" viewBox="0 0 1024 1024" version="1.1" xmlns="http://www.w3.org/2000/svg" p-id="39030" xmlns:xlink="http://www.w3.org/1999/xlink" width="128" height="128"><defs><style type="text/css">@font-face { font-family: "feedback-iconfont"; src: url("//at.alicdn.com/t/font_1031158_u69w8yhxdu.woff2?t=1630033759944") format("woff2"), url("//at.alicdn.com/t/font_1031158_u69w8yhxdu.woff?t=1630033759944") format("woff"), url("//at.alicdn.com/t/font_1031158_u69w8yhxdu.ttf?t=1630033759944") format("truetype"); }
</style></defs><path d="M650.24 396.8c5.12 0 28.16-35.84 61.44-23.04 2.56-2.56-81.92-79.36-189.44-23.04 0 0 84.48-10.24 107.52 53.76 20.48 64 15.36 163.84-192 197.12-112.64 28.16-107.52 166.4-107.52 166.4s53.76-61.44 89.6-61.44c15.36 10.24-7.68 35.84-7.68 35.84s43.52-7.68 56.32-33.28c2.56 2.56 5.12 30.72-12.8 40.96 5.12-2.56 66.56-12.8 81.92-66.56 0 5.12 20.48 46.08-7.68 76.8 2.56 0 89.6-10.24 94.72-138.24 5.12 0 30.72 84.48-7.68 143.36-2.56 2.56 128-76.8 64-253.44 2.56 2.56 35.84 2.56 46.08 61.44 2.56-2.56 46.08-110.08-76.8-176.64z m-250.88 286.72c12.8-25.6 61.44-51.2 112.64-61.44 110.08-20.48 135.68-102.4 135.68-102.4s-15.36 99.84-74.24 115.2c-51.2 15.36-143.36 25.6-174.08 48.64" p-id="39031" fill="#ffffff"></path><path d="M576 419.84c2.56 0 30.72-7.68 30.72-7.68s-40.96-66.56-97.28-35.84c-2.56 0-7.68 2.56-15.36 7.68 2.56 12.8 5.12 28.16 5.12 40.96 12.8 2.56 23.04 7.68 35.84 23.04 40.96 51.2-33.28 117.76-33.28 117.76s56.32 0 66.56-48.64c0 2.56 5.12 23.04 5.12 23.04s28.16-25.6 17.92-66.56c5.12 5.12 17.92 23.04 17.92 23.04s23.04-61.44-33.28-76.8z" p-id="39032" fill="#ffffff"></path><path d="M440.32 261.12l-20.48 25.6s-48.64 69.12-66.56 81.92c-17.92 12.8-30.72 15.36-30.72 15.36l-15.36-10.24-5.12 17.92-12.8 5.12s-2.56 10.24 0 20.48 28.16 38.4 40.96 38.4c0 0-17.92-35.84 0-40.96 2.56 0 20.48 15.36 20.48 15.36s2.56-33.28 20.48-30.72c5.12 2.56 20.48 20.48 20.48 20.48s5.12-33.28 28.16-30.72c23.04 5.12 76.8 33.28 35.84 87.04 0 0 25.6 33.28-2.56 43.52-17.92 2.56-53.76-5.12-53.76-5.12s51.2 40.96 64 35.84c12.8-2.56 35.84-43.52 35.84-61.44 0-15.36 12.8-84.48 17.92-94.72 5.12-7.68-7.68-43.52-46.08-33.28 2.56 0 53.76-10.24 69.12-33.28 15.36-25.6 35.84-64 87.04-64 0 0-23.04-30.72-76.8 12.8-53.76 40.96-89.6 46.08-112.64 43.52-23.04-2.56-38.4 7.68-46.08 23.04 15.36-10.24 33.28 0 33.28 0l-51.2 17.92 66.56-99.84z" p-id="39033" fill="#ffffff"></path><path d="M442.88 424.96s17.92 12.8 12.8 28.16c-7.68 15.36-15.36 28.16-7.68 43.52l7.68 15.36-25.6-2.56c-2.56 0-40.96-64 12.8-84.48z" p-id="39034" fill="#ffffff"></path></svg>