<?xml version="1.0" standalone="no"?><!DOCTYPE svg PUBLIC "-//W3C//DTD SVG 1.1//EN" "http://www.w3.org/Graphics/SVG/1.1/DTD/svg11.dtd"><svg t="1648891146471" class="icon" viewBox="0 0 1024 1024" version="1.1" xmlns="http://www.w3.org/2000/svg" p-id="3304" width="16" height="16" xmlns:xlink="http://www.w3.org/1999/xlink"><defs><style type="text/css">@font-face { font-family: "feedback-iconfont"; src: url("//at.alicdn.com/t/font_1031158_u69w8yhxdu.woff2?t=1630033759944") format("woff2"), url("//at.alicdn.com/t/font_1031158_u69w8yhxdu.woff?t=1630033759944") format("woff"), url("//at.alicdn.com/t/font_1031158_u69w8yhxdu.ttf?t=1630033759944") format("truetype"); }
</style></defs><path d="M64 352H0V0h1024v352h-64V64H64v288zM1024 1024H0v-224h64v160h896v-160h64v224z" fill="#ffffff" p-id="3305"></path><path d="M32 128h960v64H32zM480 736h-64v-210.88l-32-32-32 32V736H288v-237.12l96-96 96 96V736z" fill="#ffffff" p-id="3306"></path><path d="M320 576h128v64h-128zM992 736h-64v-210.88l-32-32-32 32V736h-64v-237.12l96-96 96 96V736z" fill="#ffffff" p-id="3307"></path><path d="M832 576h128v64h-128zM173.12 736H82.88L32 685.12V608h64v50.88l13.12 13.12h37.76l13.12-13.12V416h64v269.12L173.12 736zM640 749.12l-96-96V416h64v210.88l32 32 32-32V416h64v237.12l-96 96z" fill="#ffffff" p-id="3308"></path></svg>