<?xml version="1.0" standalone="no"?><!DOCTYPE svg PUBLIC "-//W3C//DTD SVG 1.1//EN" "http://www.w3.org/Graphics/SVG/1.1/DTD/svg11.dtd"><svg t="1648915500780" class="icon" viewBox="0 0 1024 1024" version="1.1" xmlns="http://www.w3.org/2000/svg" p-id="29349" xmlns:xlink="http://www.w3.org/1999/xlink" width="128" height="128"><defs><style type="text/css">@font-face { font-family: "feedback-iconfont"; src: url("//at.alicdn.com/t/font_1031158_u69w8yhxdu.woff2?t=1630033759944") format("woff2"), url("//at.alicdn.com/t/font_1031158_u69w8yhxdu.woff?t=1630033759944") format("woff"), url("//at.alicdn.com/t/font_1031158_u69w8yhxdu.ttf?t=1630033759944") format("truetype"); }
</style></defs><path d="M936.936037 674.146646l43.132606-23.962559-60.705148-28.75507-43.132606 23.962559-22.365054-11.182528 73.485179-41.535101-60.705148-28.75507-75.082683 41.535101-35.145086-17.572543-1.597504-68.692667h17.572543l28.75507 41.535101 44.730109-1.597504-27.157566-41.535101h15.975039l15.975039 23.962558 43.132605-1.597504-15.975039-23.962558 31.950078-1.597504 22.365055-20.767551-22.365055-19.170047-31.950078 1.597504 15.975039-25.560062-43.132605 1.597504-17.572543 25.560062h-15.975039l28.75507-43.132605-43.132605 1.597504-28.75507 43.132605h-19.170047l-3.195008-75.082683 35.145086-20.767551 76.680187 33.547582 59.107644-35.145086-75.082683-33.547582 22.365055-12.780031 44.730109 19.170047 59.107644-35.145086-43.132605-19.170047 43.132605-27.157566 11.182527-44.730109-47.925117-9.585024-43.132605 25.560063v-44.730109l-59.107644 35.145085-1.597504 46.327613-22.365055 12.780032v-78.277691L751.625585 250.808112l-1.597504 79.875195-39.937597 22.365055-65.49766-30.352574 12.780031-22.365055 54.315133-4.792511 20.76755-36.74259-54.315132 4.792512 7.987519-12.780032 31.950078-3.195007 20.767551-36.74259-30.352574 3.195008 15.975039-27.157567-9.585024-27.157566-30.352574 9.585023-15.975039 27.157567-15.975039-23.962559-20.76755 35.145086 14.377535 25.560062-6.390016 12.780032-27.157566-41.535102-20.767551 36.74259 27.157566 43.132605-12.780031 20.767551-65.49766-30.352574-1.597504-41.535102 71.887676-46.327613-1.597504-63.900156-71.887676 44.73011V143.775351l41.535102-27.157566-1.597504-63.900156-41.535101 25.560062-1.597504-47.925117L500.817473 0l-33.547582 33.547582 1.597504 47.925117-43.132606-20.767551 1.597504 63.900156 41.535102 22.365055v23.962558l-73.48518-36.742589 1.597504 63.900156 73.48518 38.340093 1.597503 44.730109-65.497659 38.340094-11.182528-15.975039 23.962559-46.327613-23.962559-33.547582-23.962558 46.327613-7.98752-12.780031 12.780031-27.157566-23.962558-31.950078-12.780031 25.560062-17.572543-23.962558-30.352574-4.792512-6.390016 28.75507 17.572543 23.962559-30.352574 1.597503 23.962558 33.547582 31.950078-1.597504 7.98752 12.780032-54.315133 3.195007 23.962559 33.547582 54.315132-3.195007 11.182528 15.975039-59.107645 35.145085-44.730109-19.170046-4.792511-79.875195-60.705149-28.755071 3.195008 78.277691-22.365054-9.585023-3.195008-46.327613-60.705148-28.75507 1.597503 44.730109-44.730109-20.767551-47.925117 14.377535 14.377535 43.132606 44.73011 20.76755-43.132606 23.962559L104.636505 399.375975l43.132606-23.962558 22.365054 11.182527L96.648986 429.728549l60.705148 28.75507 75.082683-41.535101 41.535102 17.572543 1.597504 65.49766H256.399376l-28.75507-41.535102-44.730109 4.792512 28.75507 41.535101h-15.975039l-17.572543-23.962558-43.132605 1.597504 15.975039 23.962558-31.950078 1.597504L96.648986 528.773791l22.365055 19.170047 31.950078-1.597504-15.975039 25.560062 44.730109-1.597504 15.975039-25.560062h15.975039l-27.157567 43.132605 43.132606-1.597504L256.399376 543.151326l20.767551-1.597504 1.597504 70.290172-41.535102 23.962558-76.680187-31.950078L101.441498 639.00156l75.082683 33.547582-20.767551 14.377535-44.730109-19.170047L51.918877 702.901716l43.132605 19.170047L50.321373 750.826833l-11.182527 44.730109 47.925117 9.585024 43.132605-25.560063v44.730109l59.107644-35.145085 1.597504-46.327613 22.365055-12.780032v78.277691l59.107644-35.145085 1.597504-79.875195 36.74259-22.365055 63.900156 30.352574-9.585024 14.377535-54.315132 3.195008-22.365055 35.145086 54.315133-3.195008-7.98752 12.780031-31.950078 1.597504-22.365055 35.145086 30.352575-1.597504-15.975039 27.157566 7.987519 27.157567 30.352574-7.98752 15.975039-27.157566 14.377535 25.560062 22.365055-35.145086-14.377535-25.560062 7.987519-12.780031 25.560063 43.132605 22.365054-35.145086-25.560062-43.132605 11.182527-15.975039 68.692668 31.950078 1.597504 39.937598-71.887676 46.327613 1.597504 63.900156 71.887676-44.73011v23.962559l-41.535102 27.157566 1.597504 63.900156 41.535102-25.560062 1.597503 47.925117 35.145086 30.352574 33.547582-33.547582-1.597504-47.925117 41.535102 20.767551-1.597504-63.900156-41.535102-22.365055v-23.962558l73.48518 36.742589-1.597504-63.900156-73.485179-38.340093V750.826833l70.290171-41.535101 7.98752 12.780031-25.560063 46.327613 22.365055 35.145086 25.560062-44.730109 7.98752 12.780031-14.377535 27.157566 22.365054 35.145086 14.377535-25.560063 15.975039 25.560063 30.352574 6.390015 7.98752-28.75507-15.975039-25.560062H751.625585L729.26053 750.826833h-30.352574l-7.987519-12.780031 54.315132-1.597504-22.365054-35.145086h-54.315133l-7.987519-12.780031 62.302652-38.340094 35.145086 15.975039 4.792511 78.277691 60.705149 28.755071-3.195008-78.277691 22.365054 11.182527 3.195008 46.327613 60.705148 28.75507-1.597504-44.730109 44.73011 20.767551 47.925117-14.377535-14.377535-43.132606-46.327614-25.560062zM543.950078 341.865835c28.75507 14.377535 70.290172 33.547582 102.24025 47.925117l-60.705149 33.547582c-12.780031-6.390016-27.157566-12.780031-39.937597-19.170047l-1.597504-62.302652z m-70.290172 7.987519l1.597504 63.900156c-4.792512 3.195008-9.585023 4.792512-9.585023 4.792512s-12.780031 7.98752-27.157566 15.975039l-62.302653-27.157566c28.75507-17.572543 68.692668-41.535101 97.447738-57.510141zM337.872075 463.276131l60.705148 25.560062c0 15.975039 0 33.547582 1.597504 51.120125L341.067083 575.101404c0-33.547582-1.597504-79.875195-3.195008-111.825273zM480.049922 682.134165c-31.950078-14.377535-78.277691-36.74259-107.032761-51.120124l59.107644-35.145086c14.377535 6.390016 31.950078 14.377535 47.925117 22.365054v63.900156z m36.74259-111.825273l-54.315133-25.560062s-1.597504-55.912637-1.597504-57.51014l31.950078-19.170047 20.767551-12.780031 54.315133 25.560062s1.597504 55.912637 1.597503 57.51014c-1.597504 1.597504-52.717629 31.950078-52.717628 31.950078z m33.547582 111.825273l-1.597504-63.900156c15.975039-9.585023 35.145086-20.767551 51.120125-30.352574l59.107644 28.75507c-30.352574 19.170047-78.277691 46.327613-108.630265 65.49766z m140.580343-124.605304l-60.705148-28.75507c0-17.572543 0-38.340094-1.597504-54.315133l59.107644-33.547582c1.597504 30.352574 3.195008 81.472699 3.195008 116.617785z" p-id="29350" fill="#ffffff"></path></svg>